Coordinates
version=1
nRows=12
nColumns=24
inDegrees=yes

Units are S.I. units (second, meters, Newtons, ...)
Angles are in degrees.

endheader
time	pelvis_tilt	pelvis_list	pelvis_rotation	pelvis_tx	pelvis_ty	pelvis_tz	hip_flexion_r	hip_adduction_r	hip_rotation_r	knee_angle_r	ankle_angle_r	subtalar_angle_r	mtp_angle_r	hip_flexion_l	hip_adduction_l	hip_rotation_l	knee_angle_l	ankle_angle_l	subtalar_angle_l	mtp_angle_l	lumbar_extension	lumbar_bending	lumbar_rotation
      2.55000000	     -1.64409247	      4.27620428	      3.84897277	     -1.46476197	      0.91233234	      0.20030290	     31.92468540	     -3.06803284	     -7.25792109	    -15.76493301	     10.08246635	     -7.09967674	      0.00000000	    -11.92578577	      8.57581830	      8.34113699	    -20.45727990	     24.56785301	     -7.55087138	      0.00000000	    -11.89096313	     -3.12559259	    -13.30519125
      2.55500000	     -1.65217193	      3.96805017	      3.92944463	     -1.45666838	      0.91147174	      0.20051752	     31.95450864	     -2.76768867	     -7.27330515	    -16.58479080	      9.36761184	     -7.82248712	      0.00000000	    -11.79253027	      8.14629428	      7.83070609	    -21.61918303	     24.40545578	     -6.85313196	      0.00000000	    -11.75540719	     -2.69195458	    -13.33636243
      2.56000000	     -1.71469425	      3.64671845	      3.84604461	     -1.44862995	      0.91055997	      0.20111248	     32.05590787	     -2.33354229	     -6.97369121	    -17.38267174	      8.41746966	     -8.73455723	      0.00000000	    -11.50328057	      7.68927012	      6.92929290	    -22.91204709	     24.22961076	     -5.91860848	      0.00000000	    -11.56266991	     -2.29800243	    -13.15860344
      2.56500000	     -1.79247084	      3.27550100	      3.75822530	     -1.44060401	      0.90974553	      0.20171128	     32.16460628	     -1.84719951	     -6.68956438	    -18.16132266	      7.38555678	     -9.63081435	      0.00000000	    -11.14513117	      7.17658981	      6.06723579	    -24.28243610	     23.91753697	     -5.06451136	      0.00000000	    -11.35249619	     -1.84164075	    -12.97164817
      2.57000000	     -1.87249883	      2.86764534	      3.63415815	     -1.43262967	      0.90898457	      0.20241319	     32.28947277	     -1.29526264	     -6.34697238	    -18.95361392	      6.32914293	    -10.54108441	      0.00000000	    -10.70885091	      6.60641096	      5.11394027	    -25.76540198	     23.53079927	     -4.18227755	      0.00000000	    -11.15089025	     -1.35305423	    -12.72891896
      2.57500000	     -1.95753112	      2.44135794	      3.46429550	     -1.42471582	      0.90835123	      0.20321729	     32.41753985	     -0.68947643	     -5.93228954	    -19.72586362	      5.18827986	    -11.46650717	      0.00000000	    -10.21033282	      6.00222643	      4.13290048	    -27.32477727	     22.99285505	     -3.29278354	      0.00000000	    -10.95704456	     -0.85262681	    -12.48208841
      2.58000000	     -2.05486818	      1.93823739	      3.28615208	     -1.41673633	      0.90778211	      0.20402111	     32.56061019	     -0.01131615	     -5.59388508	    -20.51449424	      4.12207965	    -12.29369354	      0.00000000	     -9.64231025	      5.30365631	      3.16020387	    -28.97567056	     22.33552285	     -2.46132992	      0.00000000	    -10.73209443	     -0.25656222	    -12.19437542
      2.58500000	     -2.15414981	      1.41098336	      3.08308728	     -1.40873560	      0.90728217	      0.20487516	     32.69579606	      0.71646690	     -5.20026826	    -21.29327792	      3.10486188	    -13.15122497	      0.00000000	     -9.02250559	      4.56573551	      2.19683098	    -30.70160296	     21.52392459	     -1.70102331	      0.00000000	    -10.50624955	      0.36290402	    -11.85857016
      2.59000000	     -2.24357439	      0.86412839	      2.86077424	     -1.40075610	      0.90684427	      0.20575320	     32.83213286	      1.46894564	     -4.83969870	    -22.10237534	      2.18663853	    -13.91964546	      0.00000000	     -8.35956884	      3.78988988	      1.25644386	    -32.51020076	     20.59810922	     -0.96294800	      0.00000000	    -10.29765455	      1.00984534	    -11.54616102
      2.59500000	     -2.32274932	      0.30684851	      2.62899872	     -1.39276712	      0.90645152	      0.20664520	     32.94459151	      2.24289452	     -4.46753867	    -22.90397279	      1.39909652	    -14.67432577	      0.00000000	     -7.66159632	      2.99082707	      0.36445189	    -34.38508666	     19.52636272	     -0.32509973	      0.00000000	    -10.10590039	      1.66559269	    -11.20618910
      2.60000000	     -2.38981614	     -0.24943674	      2.38046625	     -1.38475901	      0.90611362	      0.20754854	     33.02343628	      3.02633234	     -4.10430986	    -23.68244174	      0.74846971	    -15.40323856	      0.00000000	     -6.93742456	      2.18434603	     -0.47614334	    -36.31241239	     18.30242920	      0.21058297	      0.00000000	     -9.93046669	      2.32305595	    -10.86022018
      2.60500000	     -2.44497637	     -0.79508482	      2.12523983	     -1.37673668	      0.90583469	      0.20849977	     33.05821587	      3.80961546	     -3.74589982	    -24.42234608	      0.24715832	    -16.11441389	      0.00000000	     -6.19060266	      1.37616613	     -1.25755528	    -38.27597027	     16.92956415	      0.63980010	      0.00000000	     -9.76967066	      2.95782692	    -10.51755768
